<svg version="1.2" xmlns="http://www.w3.org/2000/svg" viewBox="0 0 1325 451" width="1325" height="451"><style>.s0{fill:#ffc926}.s1{fill:#ffc926}.s2{fill:#231f20}.s3{fill:#ffffff}.s4{fill:#ea5c56}.s5{fill:#d72727}.s6{fill:#010101}</style><path class="s0" d="m1324.6 392.1h-834.6v-391.3h834.6z" /><path class="s1" d="m203 126.3l269.6-0.9v66.8l-471.3 1l-1-67.8l88.3-1q39.3-7.6 79-58q59.6-65.1 121.6-65.1l184.3-1l-1.9 60.1l-183.4 0.6q-40.6-0.6-85.2 65.3z" /><path fill-rule="evenodd" class="s1" d="m300 325.6h172.6v66.7h-181c-16.9 34.5-52.2 58.3-93.2 58.3c-41.4 0-77.1-24.3-93.7-59.4h-103.9v-66.6h96.2c10.2-46.7 51.7-81.6 101.4-81.6c50.1 0 91.9 35.5 101.6 82.6zm-70.5 21.2c0-17.2-13.9-31.1-31.1-31.1c-17.2 0-31.1 13.9-31.1 31.1c0 17.2 13.9 31.1 31.1 31.1c17.2 0 31.1-13.9 31.1-31.1z" /><path class="s2" d="m835.3 316.5h53.2v5.7h-52.5v5.7v7.6h46.2h0.8c2.8 0 5.3 2.3 5.5 5.2v0.2v13.5c0 3.2-2.6 5.7-5.7 5.7h-53.1v-5.7h52.5v-5.7v-7.6h-46.2h-0.1h-0.7c-2.9 0-5.4-2.3-5.5-5.2v-0.2v-13.5c0-3.2 2.5-5.7 5.6-5.7z" /><path fill-rule="evenodd" class="s2" d="m958.6 316.8l30.3 43.3h-7.5l-0.2-0.3l-7.9-11.2h-36.6l-8 11.5h-7.6l30.5-43.6h6.9zm10.8 26.2l-14.4-20.5l-14.4 20.5z" /><path fill-rule="evenodd" class="s2" d="m675.5 316.8l30.4 43.3h-7.6l-0.2-0.3l-7.8-11.2h-36.7l-8 11.5h-7.5l30.5-43.6h6.8zm10.8 26.2l-14.4-20.5l-14.3 20.5z" /><path class="s2" d="m1075.5 316.5v43.6h-6.3l-41.3-36v36h-6.3v-43.6h6.3l41.3 35.8v-35.8z" /><path class="s2" d="m1162.1 316.5v43.6h-6.3l-41.4-36v36h-6.2v-43.6h6.2h0.1l41.3 35.8v-35.8z" /><path class="s2" d="m1201 316.5h51.6v5.7h-51.6v13.3h49v5.6h-49v13.3h51.6v5.7h-51.6h-0.6h-5.7v-5.7v-32.2v-5.7h5.7z" /><path class="s2" d="m564.5 354.4h44.2v5.7h-44.2h-6.3v-5.7v-37.9h6.3z" /><path class="s3" d="m665.5 106.3l-23.7 179.5l0.5 3.1h-30.5l-23.2-169.4v169.4h-31.3v-253.4h50.3l19.6 173.7l18.7-173.7h52.6v253.4h-33z" /><path fill-rule="evenodd" class="s3" d="m813.9 39.4l-0.5 2.4l0.2-1.6l-31.9 133.9v114.8h-36.2v-112.6l-31.9-135.9v-0.4v-0.4l-0.9-3.5l-0.2-0.6h36.6c0.3 0.8 0.5 1.8 0.5 2.4l0.4 1.4l14.5 73l14-70.5c0.3-1.3 0.5-2.1 0.5-2.6q0 0.3-0.1 0.8l0.3-1.1c0.2-0.4 0.6-2.6 0.8-3.4h34.7zm-100 2.4l-0.2-1.4l-0.1-0.2z" /><path class="s4" d="m874.1 59.7h-33.6v-24.2h101.5v24.2h-33.6v229.2h-34.3z" /><path fill-rule="evenodd" class="s4" d="m1017.4 196.3l3.6 19.9h-0.1zm-29.5 19.9l4.2-24h24.7l-12.3-69.2l-28.6 159.6l-0.2 1v-0.2l-0.2 1l-0.2 1.2c0 1.3-0.6 2.9-0.6 3.3h-35l0.7-3.7l0.4-2.2l45.8-244.4l0.6-3.1h33c0.2 0 0.7-1.7 0.2 0h4.1l45.3 248.1v-1l0.2 2.2l0.9 4.1h-36.8l-13.1-72.7zm-47 66.8l-0.2 0.8l0.2-1.2z" /><path fill-rule="evenodd" class="s4" d="m1201.7 288.9h-34.9l-1.9-5.3l-0.4-0.9l-29-80.1l-28.7 80.1l-0.4 0.7l-0.5 1.6l-0.2 0.6l-1.2 3.3h-34.7l1.2-3.3l1.1-2.9l47.9-123l-43-117.9l-0.9-2.2q0-0.1-0.1-0.3l-0.1-0.4l-1-3.4h34.7l1.2 3.2q0.5 0.9 1.1 3.1l26.4 72.9l28.5-79.2h34.9l-1 2.6l-46.4 120.2l45.9 126.7l-0.4-2.3l0.7 2.9zm-125.8-249.9q0 0.2 0.1 0.3l0.1 0.3l0.4 1.4zm124.7-1l-0.2 0.8l-0.8 2.9zm-123.9 3.7l-0.2-0.8z" /><path class="s4" d="m1219 35.5h34v253.4h-34z" /><path class="s3" d="m789.6 343.1h-46.1v-26.6h46z" /><path class="s5" d="m766.5 371.9c-1.8 0-23.1-2.9-23-31.4l23 0.2l23.1-0.2c0.1 28.5-21.3 31.4-23.1 31.4z" /><path class="s6" d="m792 316.6v29.5c-1.3 23.4-20.4 28.2-25.5 28.2c-5.4 0-25.5-5.2-25.5-30.6v-0.2v-0.3v-26.6h4.9l0.1 27.1c0 24.4 20.3 25.7 20.5 25.8c0.2-0.1 20.6-1.4 20.6-25.8l-0.1-27.1z" /></svg>