<svg version="1.2" xmlns="http://www.w3.org/2000/svg" viewBox="0 0 159 54" width="159" height="54"><style>.s0{fill:#ffc926}.s1{fill:#ffc926}.s2{fill:#231f20}.s3{fill:#ffffff}.s4{fill:#ea5c56}.s5{fill:#d72727}.s6{fill:#010101}</style><path class="s0" d="m158.3 47.1h-99.6v-46.7h99.6z" /><path class="s1" d="m24.4 15.3l32.2-0.1v8l-56.2 0.1l-0.2-8.1l10.6-0.1q4.7-0.9 9.4-6.9q7.1-7.8 14.5-7.8l22-0.1l-0.2 7.2h-21.9q-4.8 0-10.2 7.8z" /><path fill-rule="evenodd" class="s1" d="m36 39.1h20.6v8h-21.6c-2 4.1-6.2 6.9-11.1 6.9c-5 0-9.2-2.9-11.2-7.1h-12.4v-7.9h11.5c1.2-5.6 6.2-9.7 12.1-9.7c6 0 11 4.2 12.1 9.8zm-8.4 2.5c0-2-1.7-3.7-3.7-3.7c-2.1 0-3.7 1.7-3.7 3.7c0 2.1 1.6 3.8 3.7 3.8c2 0 3.7-1.7 3.7-3.8z" /><path class="s2" d="m99.9 38h6.3v0.7h-6.2v0.7v0.9h5.5h0.1c0.3 0 0.6 0.3 0.6 0.6v1.7c0 0.3-0.3 0.6-0.6 0.6h-6.4v-0.6h6.3v-0.7v-0.9h-5.5h-0.1c-0.4 0-0.7-0.3-0.7-0.6v-0.1v-1.6c0-0.4 0.3-0.7 0.7-0.7z" /><path fill-rule="evenodd" class="s2" d="m114.6 38.1l3.6 5.1h-0.9l-0.9-1.3h-4.4l-1 1.3h-0.9l3.7-5.2h0.8zm1.3 3.2l-1.7-2.5l-1.7 2.5z" /><path fill-rule="evenodd" class="s2" d="m80.8 38.1l3.7 5.1h-0.9h-0.1l-0.9-1.3h-4.4l-0.9 1.3h-0.9l3.6-5.2h0.8zm1.3 3.2l-1.7-2.5l-1.7 2.5z" /><path class="s2" d="m128.6 38v5.2h-0.8l-4.9-4.3v4.3h-0.8v-5.2h0.8l4.9 4.3v-4.3z" /><path class="s2" d="m138.9 38v5.2h-0.8l-4.9-4.3v4.3h-0.7v-5.2h0.7l4.9 4.3v-4.3z" /><path class="s2" d="m143.5 38h6.2v0.7h-6.2v1.6h5.9v0.7h-5.9v1.6h6.2v0.6h-6.2h-0.7v-0.6v-3.9v-0.7h0.7z" /><path class="s2" d="m67.6 42.6h5.3v0.6h-5.3h-0.8v-0.6v-4.6h0.8z" /><path class="s3" d="m79.6 12.9l-2.8 21.5l0.1 0.3h-3.7l-2.7-20.2v20.2h-3.8v-30.2h6l2.4 20.7l2.2-20.7h6.3v30.2h-4z" /><path fill-rule="evenodd" class="s3" d="m97.3 5v0.2v-0.1l-3.8 15.9v13.7h-4.3v-13.4l-3.8-16.2v-0.1l-0.1-0.4l-0.1-0.1h4.4c0 0.1 0.1 0.2 0.1 0.3v0.1l1.7 8.8l1.7-8.5q0.1-0.2 0.1-0.3q0 0.1 0 0.1v-0.1c0 0 0.1-0.3 0.1-0.4h4.1zm-11.9 0.3v-0.2z" /><path class="s4" d="m104.5 7.4h-4v-2.9h12.1v2.9h-4v27.3h-4.1z" /><path fill-rule="evenodd" class="s4" d="m121.6 23.7l0.5 2.4zm-3.6 2.3l0.5-2.8h3l-1.5-8.3l-3.4 19.1v0.1v0.1l-0.1 0.1c0 0.2-0.1 0.4-0.1 0.4h-4.1l0.1-0.4v-0.3l5.5-29.2v-0.3h4c0 0 0.1-0.2 0 0h0.5l5.4 29.6v-0.1v0.2l0.1 0.5h-4.4l-1.5-8.7zm-5.6 8l-0.1 0.1l0.1-0.1z" /><path fill-rule="evenodd" class="s4" d="m143.6 34.7h-4.1l-0.3-0.6v-0.1l-3.5-9.6l-3.4 9.6l-0.1 0.1v0.2l-0.2 0.4h-4.1l0.1-0.4l0.2-0.3l5.7-14.7l-5.2-14.1l-0.1-0.2q0 0 0-0.1l-0.1-0.4h4.1l0.2 0.4q0 0.1 0.1 0.3l3.2 8.7l3.4-9.4h4.1l-0.1 0.3l-5.5 14.4l5.5 15.1l-0.1-0.3l0.1 0.3zm-15-29.8q0 0 0 0.1v0.2zm14.9-0.2v0.1l-0.1 0.4zm-14.8 0.4v-0.1z" /><path class="s4" d="m145.7 4.5h4.1v30.2h-4.1z" /><path class="s3" d="m94.4 41.2h-5.5v-3.2h5.5z" /><path class="s5" d="m91.7 44.6c-0.2 0-2.8-0.3-2.8-3.7h2.8h2.7c0.1 3.4-2.5 3.7-2.7 3.7z" /><path class="s6" d="m94.7 38v3.6c-0.1 2.8-2.4 3.3-3 3.3c-0.7 0-3.1-0.6-3.1-3.6v-0.1v-3.2h0.6v3.3c0 2.9 2.5 3 2.5 3.1c0-0.1 2.4-0.2 2.4-3.1v-3.3z" /></svg>